<svg width="21" height="21" viewBox="0 0 21 21" fill="none" xmlns="http://www.w3.org/2000/svg">
<g id="&#240;&#159;&#166;&#134; icon &#34;Ethereum Cryptocurrency&#34;">
<g id="Group">
<path id="Vector" d="M10.333 20.4287C15.8559 20.4287 20.333 15.9516 20.333 10.4287C20.333 4.90586 15.8559 0.428711 10.333 0.428711C4.81016 0.428711 0.333008 4.90586 0.333008 10.4287C0.333008 15.9516 4.81016 20.4287 10.333 20.4287Z" fill="#2563EB"/>
<g id="Group_2">
<path id="Vector_2" d="M10.6445 2.92871V8.47246L15.3302 10.5662L10.6445 2.92871Z" fill="#F2F2F2"/>
<path id="Vector_3" d="M10.6443 2.92871L5.95801 10.5662L10.6443 8.47246V2.92871Z" fill="#F2F2F2"/>
<path id="Vector_4" d="M10.6445 14.1585V17.9254L15.3333 11.4385L10.6445 14.1585Z" fill="#F2F2F2"/>
<path id="Vector_5" d="M10.6443 17.9254V14.1579L5.95801 11.4385L10.6443 17.9254Z" fill="#F2F2F2"/>
<path id="Vector_6" d="M10.6445 13.2868L15.3302 10.5661L10.6445 8.47363V13.2868Z" fill="white" fill-opacity="0.2"/>
<path id="Vector_7" d="M5.95801 10.5661L10.6443 13.2868V8.47363L5.95801 10.5661Z" fill="#F2F2F2"/>
</g>
</g>
</g>
</svg>
