<svg width="21" height="21" viewBox="0 0 21 21" fill="none" xmlns="http://www.w3.org/2000/svg">
<g id="&#240;&#159;&#166;&#134; icon &#34;Tether Cryptocurrency&#34;">
<g id="Group">
<path id="Vector" d="M10.5 20.4287C16.0228 20.4287 20.5 15.9516 20.5 10.4287C20.5 4.90586 16.0228 0.428711 10.5 0.428711C4.97715 0.428711 0.5 4.90586 0.5 10.4287C0.5 15.9516 4.97715 20.4287 10.5 20.4287Z" fill="#007853"/>
<path id="Vector_2" fill-rule="evenodd" clip-rule="evenodd" d="M11.7013 11.2929V11.2917C11.6325 11.2967 11.2781 11.3179 10.4875 11.3179C9.85625 11.3179 9.41187 11.2992 9.25562 11.2917V11.2936C6.82562 11.1867 5.01187 10.7636 5.01187 10.2573C5.01187 9.75168 6.82562 9.32855 9.25562 9.2198V10.8723C9.41437 10.8836 9.86937 10.9104 10.4981 10.9104C11.2525 10.9104 11.6306 10.8792 11.7013 10.8729V9.22105C14.1263 9.32918 15.9356 9.7523 15.9356 10.2573C15.9356 10.7636 14.1263 11.1854 11.7013 11.2929ZM11.7013 9.04918V7.57043H15.085V5.31543H5.87188V7.57043H9.25562V9.04855C6.50562 9.1748 4.4375 9.7198 4.4375 10.3723C4.4375 11.0248 6.50562 11.5692 9.25562 11.6961V16.4348H11.7013V11.6948C14.4469 11.5686 16.51 11.0242 16.51 10.3723C16.51 9.72043 14.4469 9.17605 11.7013 9.04918Z" fill="#F2F2F2"/>
</g>
</g>
</svg>
