<svg width="21" height="21" viewBox="0 0 21 21" fill="none" xmlns="http://www.w3.org/2000/svg">
<g id="&#240;&#159;&#166;&#134; icon &#34;USD Coin Cryptocurrency&#34;">
<g id="Group">
<path id="Vector" d="M10.166 20.4287C15.6889 20.4287 20.166 15.9516 20.166 10.4287C20.166 4.90586 15.6889 0.428711 10.166 0.428711C4.64317 0.428711 0.166016 4.90586 0.166016 10.4287C0.166016 15.9516 4.64317 20.4287 10.166 20.4287Z" fill="#0053AC"/>
<path id="Vector_2" d="M10.0098 17.6162C5.95352 17.6162 2.66602 14.3287 2.66602 10.2725C2.66602 6.21621 5.95352 2.92871 10.0098 2.92871C14.066 2.92871 17.3535 6.21621 17.3535 10.2725C17.3535 12.2201 16.5798 14.0881 15.2026 15.4653C13.8254 16.8425 11.9574 17.6162 10.0098 17.6162ZM9.57227 7.54746C9.17046 7.56739 8.79061 7.73679 8.5073 8.02242C8.22399 8.30804 8.05767 8.68925 8.04102 9.09121C8.04102 9.84746 8.50352 10.3412 9.48477 10.5475L10.1723 10.71C10.841 10.8662 11.116 11.0912 11.116 11.4725C11.116 11.8537 10.6348 12.2287 10.0098 12.2287C9.78777 12.2491 9.56452 12.2065 9.36557 12.1059C9.16662 12.0054 8.99999 11.8508 8.88477 11.66C8.85063 11.5875 8.79673 11.5263 8.72928 11.4831C8.66183 11.44 8.58357 11.4168 8.50352 11.4162H8.13477C8.10641 11.4215 8.07937 11.4323 8.05521 11.448C8.03104 11.4638 8.01023 11.4841 7.99396 11.5079C7.9777 11.5318 7.96631 11.5585 7.96044 11.5868C7.95457 11.615 7.95434 11.6441 7.95977 11.6725C8.04959 12.0391 8.25843 12.3655 8.55361 12.6008C8.84878 12.836 9.21362 12.9667 9.59102 12.9725V13.4975C9.59102 13.6143 9.63744 13.7264 9.72007 13.809C9.8027 13.8917 9.91478 13.9381 10.0316 13.9381C10.1485 13.9381 10.2606 13.8917 10.3432 13.809C10.4258 13.7264 10.4723 13.6143 10.4723 13.4975V12.9662C10.899 12.9614 11.307 12.7901 11.6094 12.4889C11.9117 12.1878 12.0845 11.7804 12.091 11.3537C12.091 10.56 11.6348 10.1037 10.5535 9.87246L9.92852 9.73496C9.30352 9.57871 9.00977 9.37246 9.00977 9.02246C9.00977 8.67246 9.38477 8.28496 10.0098 8.28496C10.2066 8.2644 10.4052 8.30126 10.5815 8.3911C10.7579 8.48093 10.9044 8.6199 11.0035 8.79121C11.0437 8.87676 11.1073 8.94918 11.1869 9.00007C11.2666 9.05095 11.359 9.07822 11.4535 9.07871H11.7473C11.8141 9.06237 11.8718 9.02049 11.908 8.96205C11.9442 8.90361 11.9561 8.8333 11.941 8.76621C11.8563 8.42773 11.6669 8.12464 11.3998 7.90017C11.1327 7.67571 10.8015 7.54133 10.4535 7.51621V7.08496C10.4535 6.9681 10.4071 6.85602 10.3245 6.77339C10.2418 6.69076 10.1298 6.64434 10.0129 6.64434C9.89603 6.64434 9.78395 6.69076 9.70132 6.77339C9.61869 6.85602 9.57227 6.9681 9.57227 7.08496V7.54746ZM4.50352 10.2725C4.50423 11.4238 4.86662 12.5457 5.53951 13.4799C6.21239 14.4141 7.16176 15.1133 8.25352 15.4787H8.34102C8.41561 15.4787 8.48714 15.4491 8.53989 15.3963C8.59263 15.3436 8.62227 15.2721 8.62227 15.1975V15.0662C8.62247 14.9499 8.58813 14.8361 8.5236 14.7393C8.45906 14.6425 8.36724 14.567 8.25977 14.5225C7.40952 14.1793 6.68123 13.5898 6.16838 12.8298C5.65553 12.0697 5.38152 11.1737 5.38152 10.2568C5.38152 9.33994 5.65553 8.44396 6.16838 7.68391C6.68123 6.92385 7.40952 6.3344 8.25977 5.99121C8.36674 5.94776 8.45835 5.87342 8.52291 5.77769C8.58748 5.68197 8.62206 5.56918 8.62227 5.45371V5.30996C8.62267 5.26775 8.61289 5.22607 8.59376 5.18845C8.57462 5.15083 8.5467 5.11837 8.51235 5.09384C8.47801 5.06931 8.43825 5.05342 8.39646 5.04752C8.35466 5.04162 8.31206 5.04589 8.27227 5.05996C7.17599 5.42252 6.22183 6.12128 5.54529 7.05699C4.86875 7.9927 4.50423 9.11779 4.50352 10.2725ZM15.516 10.2725C15.514 9.12224 15.151 8.00166 14.4782 7.06872C13.8054 6.13578 12.8568 5.43755 11.766 5.07246H11.6723C11.5944 5.07246 11.5196 5.10341 11.4646 5.1585C11.4095 5.21359 11.3785 5.2883 11.3785 5.36621V5.45996C11.381 5.5805 11.4184 5.69775 11.486 5.79755C11.5537 5.89736 11.6487 5.97546 11.7598 6.02246C12.6081 6.36666 13.3344 6.95614 13.8458 7.71549C14.3571 8.47483 14.6303 9.36948 14.6303 10.285C14.6303 11.2004 14.3571 12.0951 13.8458 12.8544C13.3344 13.6138 12.6081 14.2033 11.7598 14.5475C11.6509 14.5949 11.5577 14.6725 11.4913 14.771C11.4249 14.8695 11.3879 14.9849 11.3848 15.1037V15.21C11.3853 15.2563 11.3968 15.3018 11.4183 15.3429C11.4398 15.3839 11.4707 15.4193 11.5085 15.4461C11.5463 15.473 11.5899 15.4904 11.6357 15.4972C11.6816 15.5039 11.7284 15.4998 11.7723 15.485C12.8639 15.1181 13.8126 14.4175 14.4844 13.4822C15.1562 12.5469 15.517 11.4241 15.516 10.2725Z" fill="#F2F2F2"/>
</g>
</g>
</svg>
